<?xml version="1.0" encoding="UTF-8" standalone="no"?><!DOCTYPE svg PUBLIC "-//W3C//DTD SVG 1.1//EN" "http://www.w3.org/Graphics/SVG/1.1/DTD/svg11.dtd"><svg width="100%" height="100%" viewBox="0 0 752 149" version="1.1" xmlns="http://www.w3.org/2000/svg" xmlns:xlink="http://www.w3.org/1999/xlink" xml:space="preserve" xmlns:serif="http://www.serif.com/" style="fill-rule:evenodd;clip-rule:evenodd;stroke-linejoin:round;stroke-miterlimit:1.41421;"><g id="Layer-1" serif:id="Layer 1"><path d="M206.242,74.211c4.336,0 7.786,-1.036 10.349,-3.108c2.562,-2.073 3.843,-4.886 3.843,-8.439l0,-0.196c0,-3.749 -1.249,-6.596 -3.745,-8.537c-2.497,-1.942 -6.013,-2.911 -10.548,-2.911l-17.643,0l0,23.191l17.744,0Zm-29.732,-34.1l30.659,0c4.324,0 8.156,0.607 11.497,1.819c3.342,1.213 6.125,2.898 8.353,5.06c1.833,1.902 3.243,4.095 4.226,6.584c0.982,2.491 1.474,5.242 1.474,8.254l0,0.197c0,2.818 -0.411,5.355 -1.229,7.616c-0.82,2.259 -1.95,4.259 -3.391,5.994c-1.441,1.737 -3.161,3.211 -5.158,4.423c-2,1.212 -4.21,2.145 -6.634,2.799l18.574,26.041l-14.249,0l-16.954,-23.977l-0.197,0l-14.983,0l0,23.977l-11.988,0l0,-68.787Z" style="fill:#333;fill-rule:nonzero;"/><path d="M287.266,81.58l-11.891,-27.515l-11.791,27.515l23.682,0Zm-17.295,-41.959l11.202,0l30.267,69.277l-12.776,0l-6.976,-16.607l-32.526,0l-7.076,16.607l-12.381,0l30.266,-69.277Z" style="fill:#333;fill-rule:nonzero;"/><path d="M344.122,97.99c3.602,0 6.879,-0.574 9.826,-1.726c2.948,-1.151 5.454,-2.762 7.518,-4.835c2.063,-2.072 3.668,-4.54 4.815,-7.402c1.146,-2.862 1.72,-5.97 1.72,-9.324l0,-0.198c0,-3.356 -0.574,-6.48 -1.72,-9.374c-1.147,-2.895 -2.752,-5.377 -4.815,-7.45c-2.064,-2.072 -4.57,-3.7 -7.518,-4.885c-2.947,-1.184 -6.224,-1.777 -9.826,-1.777l-13.562,0l0,46.971l13.562,0Zm-25.55,-57.879l25.648,0c5.371,0 10.301,0.869 14.789,2.604c4.487,1.737 8.353,4.145 11.595,7.223c3.244,3.079 5.75,6.699 7.518,10.859c1.768,4.16 2.653,8.664 2.653,13.511l0,0.197c0,4.848 -0.885,9.369 -2.653,13.561c-1.768,4.194 -4.274,7.828 -7.518,10.907c-3.242,3.08 -7.108,5.503 -11.595,7.271c-4.488,1.769 -9.418,2.654 -14.789,2.654l-25.648,0l0,-68.787Z" style="fill:#333;fill-rule:nonzero;"/><path d="M382.249,40.111l13.069,0l16.413,51l16.901,-51.196l10.22,0l16.9,51.196l16.413,-51l12.676,0l-23.979,69.278l-10.416,0l-16.901,-49.428l-16.902,49.428l-10.416,0l-23.978,-69.278Z" style="fill:#333;fill-rule:nonzero;"/><path d="M522.329,98.974c3.392,0 6.507,-0.639 9.344,-1.916c2.838,-1.278 5.267,-3.014 7.289,-5.209c2.022,-2.193 3.603,-4.766 4.747,-7.714c1.141,-2.947 1.712,-6.093 1.712,-9.433l0,-0.197c0,-3.341 -0.571,-6.501 -1.712,-9.483c-1.144,-2.98 -2.741,-5.568 -4.797,-7.763c-2.053,-2.193 -4.517,-3.945 -7.385,-5.257c-2.873,-1.309 -6.003,-1.966 -9.394,-1.966c-3.395,0 -6.507,0.639 -9.345,1.917c-2.837,1.278 -5.268,3.014 -7.291,5.208c-2.022,2.196 -3.603,4.767 -4.746,7.714c-1.142,2.948 -1.711,6.093 -1.711,9.434l0,0.196c0,3.341 0.569,6.502 1.711,9.484c1.143,2.981 2.741,5.569 4.796,7.762c2.054,2.196 4.516,3.948 7.389,5.257c2.869,1.311 6,1.966 9.393,1.966m-0.196,11.104c-5.307,0 -10.155,-0.934 -14.544,-2.801c-4.389,-1.866 -8.156,-4.405 -11.301,-7.615c-3.144,-3.209 -5.601,-6.96 -7.369,-11.252c-1.771,-4.291 -2.655,-8.859 -2.655,-13.708l0,-0.197c0,-4.847 0.884,-9.416 2.655,-13.708c1.768,-4.291 4.258,-8.058 7.467,-11.3c3.209,-3.243 7.009,-5.814 11.399,-7.714c4.389,-1.9 9.237,-2.85 14.544,-2.85c5.307,0 10.154,0.934 14.543,2.801c4.39,1.866 8.157,4.405 11.302,7.614c3.144,3.211 5.6,6.963 7.368,11.253c1.77,4.292 2.654,8.86 2.654,13.708l0,0.196c0,4.849 -0.884,9.418 -2.654,13.708c-1.768,4.292 -4.258,8.059 -7.467,11.301c-3.211,3.242 -7.012,5.815 -11.398,7.714c-4.39,1.899 -9.238,2.85 -14.544,2.85" style="fill:#333;fill-rule:nonzero;"/><path d="M598.678,74.211c4.335,0 7.785,-1.036 10.349,-3.108c2.561,-2.073 3.843,-4.886 3.843,-8.439l0,-0.196c0,-3.749 -1.249,-6.596 -3.746,-8.537c-2.497,-1.942 -6.012,-2.911 -10.546,-2.911l-17.643,0l0,23.191l17.743,0Zm-29.732,-34.1l30.659,0c4.324,0 8.156,0.607 11.497,1.819c3.341,1.213 6.124,2.898 8.352,5.06c1.833,1.902 3.244,4.095 4.225,6.584c0.984,2.491 1.475,5.242 1.475,8.254l0,0.197c0,2.818 -0.41,5.355 -1.229,7.616c-0.819,2.259 -1.949,4.259 -3.39,5.994c-1.441,1.737 -3.161,3.211 -5.159,4.423c-1.999,1.212 -4.21,2.145 -6.633,2.799l18.573,26.041l-14.248,0l-16.955,-23.977l-0.197,0l-14.981,0l0,23.977l-11.989,0l0,-68.787Z" style="fill:#333;fill-rule:nonzero;"/><path d="M636.229,40.111l11.987,0l0,34.59l32.724,-34.59l14.838,0l-28.595,29.579l29.873,39.208l-14.641,0l-23.487,-30.954l-10.712,11.006l0,19.948l-11.987,0l0,-68.787Z" style="fill:#333;fill-rule:nonzero;"/><path d="M726.829,109.881c-5.307,0 -10.384,-0.9 -15.231,-2.702c-4.85,-1.802 -9.335,-4.569 -13.464,-8.303l7.273,-8.648c3.34,2.883 6.714,5.094 10.121,6.633c3.404,1.54 7.271,2.309 11.595,2.309c3.734,0 6.697,-0.786 8.894,-2.358c2.193,-1.573 3.291,-3.668 3.291,-6.289l0,-0.198c0,-1.243 -0.212,-2.339 -0.639,-3.291c-0.428,-0.949 -1.218,-1.85 -2.366,-2.702c-1.149,-0.85 -2.727,-1.637 -4.728,-2.358c-2.005,-0.721 -4.615,-1.441 -7.833,-2.162c-3.679,-0.851 -6.945,-1.819 -9.802,-2.899c-2.857,-1.082 -5.254,-2.391 -7.192,-3.931c-1.937,-1.538 -3.417,-3.423 -4.434,-5.65c-1.017,-2.226 -1.526,-4.914 -1.526,-8.058l0,-0.197c0,-2.948 0.583,-5.65 1.754,-8.106c1.169,-2.457 2.777,-4.554 4.823,-6.289c2.048,-1.736 4.508,-3.097 7.386,-4.078c2.876,-0.983 6.016,-1.475 9.424,-1.475c5.044,0 9.581,0.737 13.609,2.211c4.03,1.474 7.814,3.621 11.352,6.437l-6.487,9.138c-3.144,-2.292 -6.256,-4.044 -9.336,-5.257c-3.079,-1.211 -6.19,-1.818 -9.335,-1.818c-3.538,0 -6.288,0.786 -8.255,2.358c-1.963,1.573 -2.948,3.505 -2.948,5.798l0,0.198c0,1.31 0.23,2.472 0.691,3.488c0.458,1.016 1.296,1.932 2.511,2.751c1.215,0.82 2.891,1.589 5.024,2.309c2.135,0.721 4.844,1.474 8.129,2.26c3.61,0.918 6.814,1.934 9.605,3.047c2.791,1.114 5.105,2.473 6.946,4.078c1.837,1.606 3.234,3.472 4.187,5.601c0.95,2.129 1.43,4.602 1.43,7.419l0,0.196c0,3.211 -0.603,6.093 -1.806,8.647c-1.202,2.556 -2.876,4.718 -5.019,6.487c-2.142,1.767 -4.719,3.112 -7.728,4.028c-3.01,0.917 -6.314,1.376 -9.916,1.376" style="fill:#333;fill-rule:nonzero;"/><path d="M74.4,35.015c-21.774,0 -39.489,17.716 -39.489,39.49c0,21.775 17.715,39.49 39.489,39.49c21.775,0 39.49,-17.715 39.49,-39.49c0,-21.774 -17.715,-39.49 -39.49,-39.49m0,86.557c-25.952,0 -47.065,-21.115 -47.065,-47.067c0,-25.952 21.113,-47.066 47.065,-47.066c25.953,0 47.066,21.114 47.066,47.066c0,25.952 -21.113,47.067 -47.066,47.067m-6.643,19.055l13.286,0l1.738,-11.155l2.591,-0.519c7.082,-1.418 13.731,-4.176 19.763,-8.193l2.2,-1.466l9.123,6.665l9.396,-9.396l-6.663,-9.123l1.465,-2.2c4.016,-6.033 6.773,-12.681 8.192,-19.762l0.519,-2.592l11.156,-1.736l0,-13.287l-11.156,-1.738l-0.519,-2.591c-1.419,-7.081 -4.176,-13.73 -8.192,-19.764l-1.465,-2.2l6.663,-9.121l-9.396,-9.396l-9.12,6.663l-2.2,-1.465c-6.037,-4.019 -12.687,-6.776 -19.765,-8.194l-2.592,-0.519l-1.738,-11.155l-13.286,0l-1.737,11.155l-2.592,0.519c-7.078,1.418 -13.727,4.175 -19.764,8.194l-2.201,1.464l-9.122,-6.662l-9.395,9.395l6.664,9.122l-1.465,2.2c-4.018,6.036 -6.775,12.684 -8.192,19.763l-0.52,2.592l-11.155,1.737l0,13.288l11.155,1.736l0.52,2.592c1.417,7.077 4.174,13.726 8.193,19.762l1.465,2.201l-6.665,9.122l9.395,9.395l9.122,-6.665l2.201,1.465c6.034,4.019 12.683,6.777 19.764,8.195l2.592,0.519l1.737,11.155Zm19.775,7.576l-26.263,0l-1.931,-12.4c-6.224,-1.522 -12.134,-3.973 -17.627,-7.309l-10.139,7.41l-18.57,-18.572l7.408,-10.14c-3.337,-5.493 -5.787,-11.403 -7.308,-17.624l-12.4,-1.931l0,-26.264l12.4,-1.93c1.521,-6.222 3.971,-12.132 7.308,-17.624l-7.408,-10.141l18.57,-18.57l10.139,7.408c5.495,-3.337 11.405,-5.788 17.627,-7.31l1.931,-12.399l26.263,0l1.929,12.399c6.225,1.522 12.134,3.972 17.628,7.31l10.138,-7.408l18.57,18.57l-7.406,10.141c3.335,5.491 5.785,11.4 7.308,17.624l12.4,1.93l0,26.264l-12.4,1.931c-1.523,6.223 -3.973,12.134 -7.308,17.625l7.406,10.139l-18.57,18.572l-10.14,-7.41c-5.491,3.337 -11.4,5.787 -17.626,7.309l-1.929,12.4Z" style="fill:#f48331;fill-rule:nonzero;"/><path d="M48.705,75.73l10.889,5.723l0,7.09l-17.574,-9.168l0,-7.089l17.574,-9.217l0,7.09l-10.889,5.571Z" style="fill:#f48331;fill-rule:nonzero;"/><path d="M79.097,54.916l6.481,2.229l-14.331,35.45l-6.482,-2.229l14.332,-35.45Z" style="fill:#f48331;fill-rule:nonzero;"/><path d="M88.714,70.159l0,-7.09l17.573,9.217l0,7.09l-17.573,9.167l0,-7.09l10.889,-5.723l-10.889,-5.571Z" style="fill:#f48331;fill-rule:nonzero;"/></g></svg>